<?xml version="1.0" encoding="UTF-8" ?>
<!DOCTYPE svg PUBLIC "-//W3C//DTD SVG 1.1//EN" "http://www.w3.org/Graphics/SVG/1.1/DTD/svg11.dtd">
<svg width="1125pt" height="1125pt" viewBox="0 0 1125 1125" version="1.1" xmlns="http://www.w3.org/2000/svg">
<g id="#000000ff">
<path fill="#000000" opacity="1.00" d=" M 0.00 0.00 L 1125.00 0.00 L 1125.00 1125.00 L 0.00 1125.00 L 0.00 0.00 M 494.38 272.85 C 494.38 277.07 494.38 281.29 494.32 285.51 C 491.13 282.75 488.28 279.63 485.14 276.82 C 477.05 283.46 473.54 294.64 475.91 304.78 C 465.78 302.63 454.32 305.71 447.87 314.11 C 450.72 316.98 453.66 319.77 456.38 322.77 C 452.30 322.84 448.23 322.81 444.15 322.81 C 442.99 333.32 448.70 343.85 457.71 349.18 C 455.12 351.07 452.51 353.00 450.39 355.42 C 445.50 360.80 443.83 368.30 444.03 375.40 C 448.37 375.53 452.72 375.62 457.08 375.59 C 453.86 378.54 450.71 381.58 447.87 384.92 C 450.80 387.84 453.91 390.72 457.78 392.34 C 463.49 394.96 470.00 394.97 476.09 393.90 C 475.24 398.57 474.87 403.45 476.17 408.07 C 477.41 413.61 481.17 418.06 485.06 422.00 C 488.42 418.98 491.55 415.73 494.72 412.52 C 494.74 416.99 494.77 421.46 494.82 425.93 C 505.33 427.11 515.76 421.36 521.23 412.48 C 526.71 421.36 537.13 427.17 547.66 425.87 C 547.66 421.64 547.63 417.42 547.75 413.19 C 550.80 416.06 553.85 418.95 556.71 422.02 C 565.17 415.56 568.30 404.24 566.10 394.05 C 570.74 394.53 575.53 395.07 580.10 393.81 C 585.66 392.50 590.28 388.88 594.22 384.89 C 591.48 381.95 588.61 379.12 585.96 376.10 C 589.95 375.87 593.95 375.88 597.95 375.90 C 597.86 371.86 597.91 367.68 596.38 363.87 C 594.25 357.88 589.68 353.17 584.57 349.57 C 593.45 344.12 598.86 333.83 597.98 323.40 C 593.80 323.34 589.63 323.29 585.46 323.15 C 588.23 320.00 591.18 317.01 594.19 314.09 C 587.74 305.65 576.20 302.59 566.07 304.82 C 566.64 300.24 567.23 295.51 566.00 290.99 C 564.64 285.41 561.17 280.62 556.93 276.86 C 553.64 279.87 550.57 283.09 547.32 286.13 C 547.29 281.65 547.30 277.17 547.21 272.69 C 536.66 271.94 526.38 277.21 520.75 286.13 C 515.22 277.34 504.85 271.67 494.38 272.85 M 605.63 409.70 C 580.02 426.33 560.14 452.71 554.16 482.94 C 551.05 497.07 551.77 511.61 551.70 525.97 C 551.70 569.44 551.69 612.90 551.70 656.37 C 559.38 649.69 566.90 642.83 574.63 636.22 C 574.82 593.15 574.63 550.08 574.73 507.01 C 574.77 495.24 576.83 483.43 581.33 472.53 C 593.09 444.31 619.40 421.99 649.78 416.88 C 662.99 414.52 676.45 415.73 689.78 415.39 C 697.39 407.72 705.03 400.09 712.65 392.43 C 696.75 392.41 680.85 392.42 664.95 392.42 C 644.10 392.60 623.17 398.30 605.63 409.70 M 320.98 443.07 C 306.12 452.44 293.37 465.11 283.74 479.78 C 272.29 497.27 266.32 518.12 266.11 538.99 C 265.49 561.03 271.00 583.38 282.89 602.04 C 298.34 626.15 322.27 645.42 350.19 652.77 C 370.61 658.14 392.47 658.04 412.84 652.48 C 431.66 647.33 448.69 636.64 462.40 622.86 C 473.57 634.14 484.71 645.46 495.96 656.65 C 496.07 590.56 495.99 524.47 496.01 458.37 C 486.72 461.03 477.50 463.88 468.19 466.46 C 457.88 454.57 445.33 444.50 431.15 437.59 C 414.42 429.31 395.56 425.87 376.98 426.48 C 357.29 427.00 337.65 432.49 320.98 443.07 M 679.89 429.09 C 649.32 435.58 622.81 456.24 606.62 482.65 C 594.28 502.64 589.39 526.66 591.00 549.96 C 592.11 568.71 597.92 587.22 608.17 602.98 C 624.37 627.84 649.73 647.34 678.96 653.78 C 703.02 659.11 728.92 657.32 751.61 647.46 C 764.92 641.70 776.83 633.05 787.09 622.86 C 798.23 634.17 809.38 645.46 820.65 656.64 C 820.68 590.55 820.68 524.47 820.65 458.39 C 811.43 461.09 802.20 463.78 792.99 466.50 C 781.13 453.01 766.51 441.77 749.87 434.87 C 727.89 425.70 703.09 424.30 679.89 429.09 M 513.69 470.43 C 513.70 532.51 513.71 594.58 513.69 656.65 C 521.46 656.68 529.23 656.66 537.01 656.66 C 537.03 594.58 536.99 532.51 537.03 470.43 C 529.25 470.41 521.47 470.40 513.69 470.43 M 389.02 683.09 C 388.60 690.46 388.86 697.86 388.88 705.24 C 386.78 703.44 384.66 701.49 382.00 700.59 C 375.51 698.35 367.59 701.23 364.60 707.54 C 361.12 714.84 361.06 723.64 363.71 731.22 C 365.53 736.73 371.15 740.56 376.96 740.14 C 382.02 740.34 386.17 737.01 389.61 733.70 C 389.60 735.53 389.61 737.38 389.63 739.23 C 391.63 739.67 393.70 739.77 395.67 739.06 C 395.55 721.07 395.68 703.07 395.61 685.07 C 395.81 681.58 391.14 683.17 389.02 683.09 M 601.70 682.87 C 601.30 701.67 601.53 720.50 601.59 739.30 C 603.79 739.67 606.03 739.68 608.23 739.26 C 608.25 720.48 608.38 701.69 608.17 682.91 C 606.01 682.68 603.85 682.67 601.70 682.87 M 715.95 682.96 C 715.78 701.74 715.86 720.51 715.91 739.29 C 717.87 739.65 719.88 739.66 721.85 739.21 C 721.86 737.48 721.88 735.76 721.89 734.04 C 724.91 737.03 728.50 740.14 733.02 740.13 C 738.75 740.67 744.59 737.45 747.01 732.21 C 750.25 725.35 750.27 717.23 748.23 710.03 C 746.65 704.21 741.17 699.54 734.98 699.89 C 730.10 699.58 725.94 702.58 722.58 705.76 C 722.59 698.35 722.79 690.93 722.51 683.54 C 720.80 681.91 718.05 682.94 715.95 682.96 M 407.68 686.58 C 407.10 687.66 406.88 688.82 407.03 690.07 C 406.82 695.34 416.91 694.42 415.40 689.02 C 415.98 684.83 409.80 684.29 407.68 686.58 M 454.69 686.56 C 454.10 687.64 453.88 688.82 454.03 690.08 C 453.84 695.37 463.98 694.40 462.40 688.97 C 462.92 684.81 456.81 684.32 454.69 686.56 M 788.55 686.32 C 787.29 687.80 787.71 690.09 788.06 691.88 C 790.27 695.00 797.26 693.67 796.06 689.02 C 796.60 684.94 790.95 684.41 788.55 686.32 M 257.00 692.61 C 262.00 692.88 267.03 692.63 272.04 692.72 C 272.11 708.19 271.98 723.66 272.11 739.13 C 274.41 739.73 276.78 739.70 279.10 739.20 C 279.19 723.71 279.10 708.21 279.14 692.72 C 284.26 692.57 289.42 693.01 294.52 692.51 C 295.98 691.04 295.04 688.65 295.08 686.83 C 283.06 686.40 271.01 686.76 258.98 686.63 C 255.45 685.57 254.94 691.06 257.00 692.61 M 640.63 691.04 C 640.69 707.10 640.55 723.17 640.71 739.23 C 643.03 739.68 645.42 739.79 647.71 739.04 C 647.73 731.48 647.71 723.93 647.72 716.37 C 654.17 716.25 660.63 716.56 667.08 716.19 C 667.16 714.38 667.19 712.57 667.16 710.77 C 660.69 710.28 654.20 710.68 647.73 710.55 C 647.71 704.61 647.71 698.67 647.73 692.73 C 654.13 692.62 660.54 692.89 666.94 692.62 C 669.31 691.95 667.96 688.60 668.07 686.83 C 659.73 686.50 651.36 686.58 643.03 686.75 C 640.72 686.72 640.54 689.33 640.63 691.04 M 428.62 690.86 C 428.34 694.11 428.39 697.37 428.42 700.64 C 426.49 700.63 424.57 700.62 422.66 700.60 C 421.81 702.44 421.75 704.49 422.73 706.32 C 424.62 706.26 426.52 706.26 428.42 706.28 C 428.46 713.74 428.33 721.21 428.48 728.67 C 428.59 732.24 429.33 736.32 432.55 738.43 C 436.24 740.64 441.09 740.54 444.98 738.89 C 446.59 737.37 445.80 734.99 445.70 733.09 C 443.19 733.63 440.57 734.80 438.02 733.85 C 435.52 732.63 435.35 729.44 435.21 727.02 C 435.12 720.10 435.21 713.19 435.18 706.27 C 438.55 706.26 441.91 706.24 445.28 706.31 C 446.14 704.47 446.13 702.45 445.33 700.60 C 441.95 700.66 438.57 700.64 435.19 700.64 C 435.19 697.41 435.19 694.19 435.13 690.97 C 432.97 690.63 430.78 690.62 428.62 690.86 M 302.99 706.87 C 303.00 704.85 303.00 702.84 302.98 700.83 C 300.97 700.39 298.91 700.40 296.90 700.79 C 296.84 713.61 296.84 726.42 296.90 739.24 C 299.14 739.67 301.46 739.84 303.66 739.05 C 303.69 730.78 303.45 722.50 303.76 714.25 C 305.33 711.46 307.28 708.69 310.02 706.95 C 312.56 705.50 315.47 706.98 318.11 707.35 C 318.28 705.20 318.30 703.05 318.17 700.91 C 315.54 700.09 312.65 699.33 309.98 700.38 C 306.93 701.59 304.94 704.38 302.99 706.87 M 324.57 703.60 C 322.76 704.93 323.80 707.49 323.92 709.33 C 329.32 707.36 334.98 703.79 340.92 706.07 C 345.32 707.63 345.19 712.98 345.10 716.81 C 338.70 716.85 331.66 716.39 326.10 720.15 C 320.00 724.19 320.33 734.64 326.69 738.26 C 332.94 741.88 341.19 740.12 346.02 734.92 C 345.99 736.35 345.98 737.78 345.96 739.23 C 347.91 739.67 349.91 739.70 351.86 739.18 C 351.83 730.76 351.87 722.34 351.85 713.91 C 351.81 710.42 351.33 706.64 348.98 703.90 C 346.82 701.27 343.31 700.25 340.05 699.99 C 334.71 699.58 329.02 700.49 324.57 703.60 M 483.54 700.75 C 476.69 702.60 472.28 709.28 471.59 716.09 C 470.56 723.83 471.89 733.48 479.25 737.80 C 486.61 741.68 496.88 741.05 502.83 734.87 C 507.01 730.36 508.24 723.90 507.98 717.95 C 507.71 712.55 506.01 706.75 501.58 703.30 C 496.50 699.44 489.50 699.20 483.54 700.75 M 524.00 706.35 C 523.99 704.50 524.00 702.67 523.99 700.84 C 521.97 700.39 519.91 700.39 517.90 700.79 C 517.85 713.61 517.84 726.43 517.90 739.25 C 520.15 739.67 522.47 739.84 524.66 739.05 C 524.57 730.30 524.67 721.55 524.60 712.80 C 527.50 709.39 531.12 705.17 536.11 705.86 C 540.30 706.14 542.40 710.59 542.57 714.31 C 542.87 722.62 542.54 730.94 542.73 739.26 C 544.93 739.68 547.17 739.68 549.38 739.29 C 549.52 731.51 549.42 723.73 549.45 715.96 C 549.43 711.55 548.85 706.65 545.59 703.37 C 542.70 700.20 538.06 699.45 534.00 700.08 C 529.99 700.81 526.78 703.54 524.00 706.35 M 562.32 703.27 C 560.09 704.41 561.11 707.22 561.15 709.18 C 564.33 708.77 566.86 706.51 570.00 705.91 C 573.25 705.17 577.08 704.95 579.93 706.99 C 582.79 709.38 582.34 713.47 582.46 716.80 C 576.04 716.85 568.98 716.40 563.40 720.16 C 557.32 724.21 557.66 734.56 563.95 738.23 C 570.19 741.86 578.45 740.16 583.31 734.98 C 583.33 735.94 583.39 737.86 583.41 738.83 C 584.88 740.31 587.29 739.42 589.14 739.22 C 589.12 730.81 589.14 722.40 589.14 714.00 C 589.13 710.67 588.78 707.12 586.71 704.38 C 584.76 701.61 581.30 700.43 578.08 700.05 C 572.68 699.48 566.97 700.36 562.32 703.27 M 676.47 703.42 C 674.40 704.73 675.25 707.47 675.80 709.40 C 681.09 707.08 686.90 703.83 692.79 706.15 C 697.00 707.82 696.83 713.04 696.82 716.81 C 690.27 716.86 683.00 716.36 677.41 720.41 C 671.58 724.66 672.16 734.93 678.55 738.37 C 684.84 741.90 692.87 739.98 697.77 734.94 C 697.72 736.39 697.69 737.85 697.68 739.31 C 699.59 739.63 701.55 739.67 703.48 739.26 C 703.51 731.16 703.48 723.06 703.50 714.96 C 703.47 711.45 703.34 707.69 701.27 704.70 C 699.49 701.93 696.22 700.59 693.08 700.14 C 687.41 699.39 681.32 700.25 676.47 703.42 M 765.63 706.86 C 765.66 704.82 765.64 702.78 765.61 700.76 C 763.60 700.42 761.58 700.44 759.59 700.73 C 759.44 713.58 759.45 726.45 759.59 739.31 C 761.79 739.67 764.04 739.69 766.24 739.25 C 766.28 730.94 766.28 722.64 766.25 714.34 C 768.14 711.62 769.87 708.53 772.86 706.87 C 775.28 705.53 778.01 706.89 780.45 707.46 C 781.05 705.44 781.28 703.28 780.75 701.22 C 778.82 699.77 776.19 699.75 773.90 700.03 C 770.18 700.77 767.88 704.11 765.63 706.86 M 808.53 706.57 C 804.94 711.98 804.54 718.84 805.25 725.12 C 805.90 730.49 808.49 736.11 813.60 738.54 C 819.42 741.27 826.67 740.47 831.97 736.93 C 834.68 735.37 834.17 731.76 833.19 729.30 C 829.73 731.45 826.35 734.54 821.98 734.24 C 817.66 734.47 813.92 731.16 812.96 727.09 C 811.50 721.35 811.47 714.74 814.53 709.51 C 817.76 704.37 825.38 704.79 829.69 708.30 C 830.80 708.90 832.78 711.06 833.53 708.95 C 834.04 706.91 833.99 704.30 832.03 703.04 C 824.99 697.87 813.49 699.04 808.53 706.57 M 844.74 702.71 C 839.96 706.19 839.46 714.13 843.88 718.11 C 847.40 721.38 852.39 722.08 856.41 724.54 C 860.62 726.45 859.75 733.27 855.24 734.17 C 850.19 735.91 845.07 733.46 840.78 730.95 C 839.55 733.19 839.24 737.00 842.16 738.07 C 847.73 740.76 854.69 740.96 860.27 738.18 C 865.89 735.36 867.79 727.24 863.87 722.30 C 860.05 717.76 853.48 717.55 849.00 713.99 C 846.21 711.77 847.11 706.84 850.50 705.75 C 854.80 704.00 859.19 706.06 863.04 707.96 C 864.66 706.98 863.94 704.74 863.83 703.19 C 862.76 701.51 860.65 700.98 858.87 700.45 C 854.13 699.40 848.73 699.68 844.74 702.71 M 407.91 700.82 C 407.83 713.63 407.84 726.44 407.90 739.25 C 410.15 739.67 412.47 739.84 414.66 739.03 C 414.59 726.36 414.64 713.68 414.64 701.01 C 412.45 700.25 410.14 700.40 407.91 700.82 M 454.91 700.82 C 454.83 713.63 454.85 726.43 454.90 739.24 C 457.14 739.68 459.45 739.80 461.65 739.08 C 461.61 726.39 461.62 713.70 461.64 701.02 C 459.45 700.25 457.14 700.40 454.91 700.82 M 788.57 700.81 C 788.45 713.62 788.48 726.44 788.56 739.25 C 790.76 739.70 793.02 739.70 795.24 739.23 C 795.28 726.43 795.30 713.63 795.23 700.83 C 793.02 700.38 790.77 700.38 788.57 700.81 Z" />
<path fill="#000000" opacity="1.00" d=" M 500.54 278.87 C 506.68 280.24 512.25 283.94 515.70 289.22 C 518.52 293.28 519.72 298.16 520.85 302.90 C 522.17 291.96 529.69 281.06 541.00 278.90 C 541.05 283.29 541.52 287.73 540.82 292.09 C 534.90 299.38 527.62 305.43 521.20 312.28 C 514.14 305.72 507.37 298.85 500.69 291.91 C 500.35 287.57 500.41 283.21 500.54 278.87 Z" />
<path fill="#000000" opacity="1.00" d=" M 481.22 298.98 C 481.03 294.19 482.85 289.67 484.74 285.37 C 488.17 288.34 491.58 291.38 494.27 295.05 C 494.38 304.33 494.62 313.62 494.16 322.89 C 484.58 322.66 474.99 323.02 465.42 322.65 C 462.46 319.64 458.80 317.13 456.80 313.32 C 462.13 310.91 468.05 309.37 473.92 310.43 C 478.87 311.17 483.21 313.81 487.43 316.34 C 484.36 311.01 481.16 305.32 481.22 298.98 Z" />
<path fill="#000000" opacity="1.00" d=" M 548.20 294.24 C 550.89 291.14 553.94 288.37 556.96 285.60 C 560.83 291.23 561.69 298.50 560.03 305.04 C 558.87 309.42 556.18 313.14 553.84 316.94 C 559.01 313.62 564.60 310.34 570.91 310.16 C 575.94 309.71 580.80 311.36 585.27 313.48 C 582.54 317.00 579.51 320.42 575.91 323.06 C 566.41 323.64 556.83 323.30 547.30 323.16 C 547.29 314.76 547.31 306.37 547.28 297.98 C 547.34 296.69 547.11 295.19 548.20 294.24 Z" />
<path fill="#000000" opacity="1.00" d=" M 500.64 301.04 C 505.46 305.66 510.35 310.23 514.87 315.15 C 518.54 319.67 516.50 326.22 513.18 330.34 C 507.55 330.43 501.61 326.74 500.64 320.94 C 500.18 314.32 500.60 307.67 500.64 301.04 Z" />
<path fill="#000000" opacity="1.00" d=" M 529.53 312.60 C 533.33 308.94 536.82 304.95 541.01 301.71 C 541.12 308.14 541.30 314.60 541.02 321.03 C 540.05 326.75 534.08 329.91 528.74 330.32 C 526.57 327.34 524.75 323.80 525.28 319.99 C 525.43 316.99 527.50 314.61 529.53 312.60 Z" />
<path fill="#000000" opacity="1.00" d=" M 450.05 328.91 C 454.30 329.03 458.62 328.51 462.82 329.29 C 469.87 335.71 476.52 342.59 483.06 349.53 C 476.36 356.05 469.99 362.91 463.03 369.16 C 458.70 369.48 454.35 369.41 450.02 369.08 C 451.90 362.79 455.86 357.00 461.56 353.59 C 465.52 351.05 470.24 350.22 474.77 349.25 C 468.34 347.90 461.56 346.01 456.91 341.05 C 453.53 337.74 451.31 333.44 450.05 328.91 Z" />
<path fill="#000000" opacity="1.00" d=" M 471.88 328.92 C 478.92 328.97 485.99 328.65 493.02 329.20 C 498.64 330.30 501.68 336.36 501.85 341.68 C 498.79 344.10 495.00 346.03 490.98 345.38 C 488.04 345.25 485.79 343.20 483.86 341.20 C 479.89 337.08 475.52 333.35 471.88 328.92 Z" />
<path fill="#000000" opacity="1.00" d=" M 540.63 341.80 C 539.53 335.84 544.88 329.41 550.99 329.50 C 557.14 329.47 563.30 329.45 569.46 329.62 C 565.54 334.32 560.85 338.28 556.69 342.75 C 552.41 347.35 544.82 345.66 540.63 341.80 Z" />
<path fill="#000000" opacity="1.00" d=" M 559.00 349.51 C 565.50 342.72 571.96 335.87 579.00 329.64 C 583.31 329.41 587.62 329.50 591.93 329.71 C 590.18 336.10 586.11 341.91 580.35 345.28 C 576.15 347.94 571.17 348.68 566.41 349.73 C 577.97 350.23 589.34 358.11 592.03 369.70 C 587.68 369.52 583.00 370.56 578.86 369.18 C 572.03 362.86 565.64 356.04 559.00 349.51 Z" />
<path fill="#000000" opacity="1.00" d=" M 485.77 355.66 C 490.42 351.52 497.72 353.25 501.80 357.36 C 501.71 363.23 497.20 369.33 491.00 369.43 C 484.83 369.61 478.66 369.48 472.50 369.17 C 476.64 364.40 481.28 360.10 485.77 355.66 Z" />
<path fill="#000000" opacity="1.00" d=" M 540.23 357.44 C 544.33 352.84 552.22 351.61 556.83 356.12 C 561.28 360.64 565.92 364.98 570.18 369.69 C 563.45 369.83 556.72 369.91 549.99 369.76 C 544.01 369.20 540.41 362.99 540.23 357.44 Z" />
<path fill="#000000" opacity="1.00" d=" M 500.90 378.98 C 501.13 372.95 507.32 368.41 513.12 368.81 C 517.63 372.62 518.22 380.62 513.80 384.75 C 509.70 388.96 505.64 393.24 501.14 397.02 C 500.81 391.01 500.79 384.99 500.90 378.98 Z" />
<path fill="#000000" opacity="1.00" d=" M 528.17 384.77 C 523.58 380.63 524.71 372.74 528.98 368.80 C 534.28 367.88 539.85 371.90 541.20 377.03 C 541.75 383.86 541.39 390.74 541.38 397.60 C 536.73 393.58 532.52 389.09 528.17 384.77 Z" />
<path fill="#000000" opacity="1.00" d=" M 456.54 385.04 C 459.58 381.86 462.42 378.40 466.00 375.81 C 475.55 375.26 485.16 375.74 494.74 375.58 C 494.54 385.07 495.28 394.62 494.31 404.06 C 491.57 407.45 488.18 410.24 485.02 413.22 C 481.26 407.29 480.28 399.81 482.25 393.10 C 483.42 388.82 486.00 385.15 488.47 381.54 C 483.71 384.64 478.73 387.95 472.91 388.49 C 467.24 389.26 461.49 387.81 456.54 385.04 Z" />
<path fill="#000000" opacity="1.00" d=" M 547.71 375.90 C 557.13 376.01 566.56 375.50 575.96 376.14 C 579.89 378.13 582.43 381.99 585.46 385.08 C 580.43 387.82 574.63 389.32 568.89 388.47 C 563.41 387.94 558.76 384.78 554.09 382.15 C 556.97 386.69 560.10 391.39 560.58 396.90 C 561.36 402.56 560.24 408.50 556.91 413.21 C 553.88 410.25 550.39 407.63 548.03 404.08 C 547.22 394.71 547.82 385.29 547.71 375.90 Z" />
<path fill="#000000" opacity="1.00" d=" M 501.24 406.38 C 507.48 399.52 514.27 393.20 520.77 386.58 C 527.94 392.95 534.67 399.82 541.28 406.76 C 541.53 411.23 541.50 415.72 541.34 420.19 C 535.26 418.16 529.35 414.69 525.99 409.06 C 523.44 405.00 522.32 400.28 521.16 395.69 C 520.04 406.79 512.28 417.51 501.05 419.97 C 500.83 415.44 500.68 410.89 501.24 406.38 Z" />
<path fill="#000000" opacity="1.00" d=" M 369.16 450.14 C 386.63 448.10 404.84 450.46 420.74 458.18 C 435.37 465.27 447.87 476.45 457.22 489.70 C 467.48 504.29 472.87 522.10 472.95 539.91 C 473.42 558.51 468.33 577.36 457.70 592.72 C 446.51 608.90 430.56 622.11 411.88 628.63 C 393.66 634.87 373.50 635.27 354.97 630.12 C 337.90 625.43 322.80 614.95 311.26 601.66 C 299.94 588.93 292.41 572.88 290.07 556.00 C 287.55 537.70 289.64 518.47 297.77 501.75 C 311.23 474.36 338.45 453.36 369.16 450.14 Z" />
<path fill="#000000" opacity="1.00" d=" M 689.51 450.75 C 707.99 447.76 727.48 449.79 744.52 457.74 C 758.73 464.46 771.02 474.99 780.37 487.59 C 803.65 518.64 803.52 565.07 780.05 595.98 C 770.14 609.09 757.10 620.08 741.90 626.54 C 724.76 633.86 705.39 635.29 687.15 631.92 C 670.59 628.84 655.14 620.66 643.03 608.98 C 629.35 596.44 619.37 579.73 615.71 561.47 C 611.66 541.23 613.63 519.48 622.86 500.88 C 635.81 475.22 660.83 455.25 689.51 450.75 Z" />
<path fill="#000000" opacity="1.00" d=" M 375.17 706.25 C 380.61 704.17 385.64 708.39 388.65 712.50 C 388.99 717.32 388.85 722.19 388.73 727.03 C 387.38 729.39 385.21 731.26 383.00 732.81 C 379.79 735.02 374.76 735.00 372.21 731.80 C 369.01 728.03 368.82 722.71 368.99 718.01 C 369.22 713.52 370.78 708.31 375.17 706.25 Z" />
<path fill="#000000" opacity="1.00" d=" M 484.49 706.67 C 487.61 705.19 491.40 705.17 494.60 706.46 C 498.03 707.97 499.94 711.57 500.52 715.14 C 501.34 719.97 501.21 725.31 498.72 729.66 C 494.94 736.07 484.04 736.15 480.40 729.57 C 478.32 725.75 478.13 721.20 478.52 716.96 C 478.90 712.90 480.71 708.64 484.49 706.67 Z" />
<path fill="#000000" opacity="1.00" d=" M 722.60 712.91 C 725.59 709.13 729.71 704.85 735.05 705.85 C 740.19 706.74 742.14 712.53 742.42 717.11 C 742.93 722.94 742.29 730.42 736.61 733.63 C 731.08 736.03 725.57 731.61 722.71 727.20 C 722.47 722.44 722.73 717.67 722.60 712.91 Z" />
<path fill="#000000" opacity="1.00" d=" M 682.74 723.72 C 686.85 720.94 692.09 721.91 696.77 721.72 C 696.77 724.32 696.77 726.93 696.77 729.54 C 693.65 732.86 689.21 736.15 684.40 734.46 C 679.78 733.27 678.91 726.30 682.74 723.72 Z" />
<path fill="#000000" opacity="1.00" d=" M 331.53 723.40 C 335.61 721.05 340.54 721.87 345.05 721.72 C 345.06 724.35 345.06 726.99 345.04 729.63 C 341.87 732.95 337.34 736.23 332.52 734.39 C 327.84 732.97 327.34 725.68 331.53 723.40 Z" />
<path fill="#000000" opacity="1.00" d=" M 568.55 723.60 C 572.65 720.99 577.79 721.88 582.40 721.73 C 582.29 724.38 582.78 727.15 582.12 729.74 C 579.14 733.29 574.22 736.24 569.53 734.26 C 565.23 732.68 564.75 725.99 568.55 723.60 Z" />
</g>
<g id="#fdcd0bff">
<path fill="#fdcd0b" opacity="1.00" d=" M 494.38 272.85 C 504.85 271.67 515.22 277.34 520.75 286.13 C 526.38 277.21 536.66 271.94 547.21 272.69 C 547.30 277.17 547.29 281.65 547.32 286.13 C 550.57 283.09 553.64 279.87 556.93 276.86 C 561.17 280.62 564.64 285.41 566.00 290.99 C 567.23 295.51 566.64 300.24 566.07 304.82 C 576.20 302.59 587.74 305.65 594.19 314.09 C 591.18 317.01 588.23 320.00 585.46 323.15 C 589.63 323.29 593.80 323.34 597.98 323.40 C 598.86 333.83 593.45 344.12 584.57 349.57 C 589.68 353.17 594.25 357.88 596.38 363.87 C 597.91 367.68 597.86 371.86 597.95 375.90 C 593.95 375.88 589.95 375.87 585.96 376.10 C 588.61 379.12 591.48 381.95 594.22 384.89 C 590.28 388.88 585.66 392.50 580.10 393.81 C 575.53 395.07 570.74 394.53 566.10 394.05 C 568.30 404.24 565.17 415.56 556.71 422.02 C 553.85 418.95 550.80 416.06 547.75 413.19 C 547.63 417.42 547.66 421.64 547.66 425.87 C 537.13 427.17 526.71 421.36 521.23 412.48 C 515.76 421.36 505.33 427.11 494.82 425.93 C 494.77 421.46 494.74 416.99 494.72 412.52 C 491.55 415.73 488.42 418.98 485.06 422.00 C 481.17 418.06 477.41 413.61 476.17 408.07 C 474.87 403.45 475.24 398.57 476.09 393.90 C 470.00 394.97 463.49 394.96 457.78 392.34 C 453.91 390.72 450.80 387.84 447.87 384.92 C 450.71 381.58 453.86 378.54 457.08 375.59 C 452.72 375.62 448.37 375.53 444.03 375.40 C 443.83 368.30 445.50 360.80 450.39 355.42 C 452.51 353.00 455.12 351.07 457.71 349.18 C 448.70 343.85 442.99 333.32 444.15 322.81 C 448.23 322.81 452.30 322.84 456.38 322.77 C 453.66 319.77 450.72 316.98 447.87 314.11 C 454.32 305.71 465.78 302.63 475.91 304.78 C 473.54 294.64 477.05 283.46 485.14 276.82 C 488.28 279.63 491.13 282.75 494.32 285.51 C 494.38 281.29 494.38 277.07 494.38 272.85 M 500.54 278.87 C 500.41 283.21 500.35 287.57 500.69 291.91 C 507.37 298.85 514.14 305.72 521.20 312.28 C 527.62 305.43 534.90 299.38 540.82 292.09 C 541.52 287.73 541.05 283.29 541.00 278.90 C 529.69 281.06 522.17 291.96 520.85 302.90 C 519.72 298.16 518.52 293.28 515.70 289.22 C 512.25 283.94 506.68 280.24 500.54 278.87 M 481.22 298.98 C 481.16 305.32 484.36 311.01 487.43 316.34 C 483.21 313.81 478.87 311.17 473.92 310.43 C 468.05 309.37 462.13 310.91 456.80 313.32 C 458.80 317.13 462.46 319.64 465.42 322.65 C 474.99 323.02 484.58 322.66 494.16 322.89 C 494.62 313.62 494.38 304.33 494.27 295.05 C 491.58 291.38 488.17 288.34 484.74 285.37 C 482.85 289.67 481.03 294.19 481.22 298.98 M 548.20 294.24 C 547.11 295.19 547.34 296.69 547.28 297.98 C 547.31 306.37 547.29 314.76 547.30 323.16 C 556.83 323.30 566.41 323.64 575.91 323.06 C 579.51 320.42 582.54 317.00 585.27 313.48 C 580.80 311.36 575.94 309.71 570.91 310.16 C 564.60 310.34 559.01 313.62 553.84 316.94 C 556.18 313.14 558.87 309.42 560.03 305.04 C 561.69 298.50 560.83 291.23 556.96 285.60 C 553.94 288.37 550.89 291.14 548.20 294.24 M 500.64 301.04 C 500.60 307.67 500.18 314.32 500.64 320.94 C 501.61 326.74 507.55 330.43 513.18 330.34 C 516.50 326.22 518.54 319.67 514.87 315.15 C 510.35 310.23 505.46 305.66 500.64 301.04 M 529.53 312.60 C 527.50 314.61 525.43 316.99 525.28 319.99 C 524.75 323.80 526.57 327.34 528.74 330.32 C 534.08 329.91 540.05 326.75 541.02 321.03 C 541.30 314.60 541.12 308.14 541.01 301.71 C 536.82 304.95 533.33 308.94 529.53 312.60 M 450.05 328.91 C 451.31 333.44 453.53 337.74 456.91 341.05 C 461.56 346.01 468.34 347.90 474.77 349.25 C 470.24 350.22 465.52 351.05 461.56 353.59 C 455.86 357.00 451.90 362.79 450.02 369.08 C 454.35 369.41 458.70 369.48 463.03 369.16 C 469.99 362.91 476.36 356.05 483.06 349.53 C 476.52 342.59 469.87 335.71 462.82 329.29 C 458.62 328.51 454.30 329.03 450.05 328.91 M 471.88 328.92 C 475.52 333.35 479.89 337.08 483.86 341.20 C 485.79 343.20 488.04 345.25 490.98 345.38 C 495.00 346.03 498.79 344.10 501.85 341.68 C 501.68 336.36 498.64 330.30 493.02 329.20 C 485.99 328.65 478.92 328.97 471.88 328.92 M 540.63 341.80 C 544.82 345.66 552.41 347.35 556.69 342.75 C 560.85 338.28 565.54 334.32 569.46 329.62 C 563.30 329.45 557.14 329.47 550.99 329.50 C 544.88 329.41 539.53 335.84 540.63 341.80 M 559.00 349.51 C 565.64 356.04 572.03 362.86 578.86 369.18 C 583.00 370.56 587.68 369.52 592.03 369.70 C 589.34 358.11 577.97 350.23 566.41 349.73 C 571.17 348.68 576.15 347.94 580.35 345.28 C 586.11 341.91 590.18 336.10 591.93 329.71 C 587.62 329.50 583.31 329.41 579.00 329.64 C 571.96 335.87 565.50 342.72 559.00 349.51 M 485.77 355.66 C 481.28 360.10 476.64 364.40 472.50 369.17 C 478.66 369.48 484.83 369.61 491.00 369.43 C 497.20 369.33 501.71 363.23 501.80 357.36 C 497.72 353.25 490.42 351.52 485.77 355.66 M 540.23 357.44 C 540.41 362.99 544.01 369.20 549.99 369.76 C 556.72 369.91 563.45 369.83 570.18 369.69 C 565.92 364.98 561.28 360.64 556.83 356.12 C 552.22 351.61 544.33 352.84 540.23 357.44 M 500.90 378.98 C 500.79 384.99 500.81 391.01 501.14 397.02 C 505.64 393.24 509.70 388.96 513.80 384.75 C 518.22 380.62 517.63 372.62 513.12 368.81 C 507.32 368.41 501.13 372.95 500.90 378.98 M 528.17 384.77 C 532.52 389.09 536.73 393.58 541.38 397.60 C 541.39 390.74 541.75 383.86 541.20 377.03 C 539.85 371.90 534.28 367.88 528.98 368.80 C 524.71 372.74 523.58 380.63 528.17 384.77 M 456.54 385.04 C 461.49 387.81 467.24 389.26 472.91 388.49 C 478.73 387.95 483.71 384.64 488.47 381.54 C 486.00 385.15 483.42 388.82 482.25 393.10 C 480.28 399.81 481.26 407.29 485.02 413.22 C 488.18 410.24 491.57 407.45 494.31 404.06 C 495.28 394.62 494.54 385.07 494.74 375.58 C 485.16 375.74 475.55 375.26 466.00 375.81 C 462.42 378.40 459.58 381.86 456.54 385.04 M 547.71 375.90 C 547.82 385.29 547.22 394.71 548.03 404.08 C 550.39 407.63 553.88 410.25 556.91 413.21 C 560.24 408.50 561.36 402.56 560.58 396.90 C 560.10 391.39 556.97 386.69 554.09 382.15 C 558.76 384.78 563.41 387.94 568.89 388.47 C 574.63 389.32 580.43 387.82 585.46 385.08 C 582.43 381.99 579.89 378.13 575.96 376.14 C 566.56 375.50 557.13 376.01 547.71 375.90 M 501.24 406.38 C 500.68 410.89 500.83 415.44 501.05 419.97 C 512.28 417.51 520.04 406.79 521.16 395.69 C 522.32 400.28 523.44 405.00 525.99 409.06 C 529.35 414.69 535.26 418.16 541.34 420.19 C 541.50 415.72 541.53 411.23 541.28 406.76 C 534.67 399.82 527.94 392.95 520.77 386.58 C 514.27 393.20 507.48 399.52 501.24 406.38 Z" />
<path fill="#fdcd0b" opacity="1.00" d=" M 605.63 409.70 C 623.17 398.30 644.10 392.60 664.95 392.42 C 680.85 392.42 696.75 392.41 712.65 392.43 C 705.03 400.09 697.39 407.72 689.78 415.39 C 676.45 415.73 662.99 414.52 649.78 416.88 C 619.40 421.99 593.09 444.31 581.33 472.53 C 576.83 483.43 574.77 495.24 574.73 507.01 C 574.63 550.08 574.82 593.15 574.63 636.22 C 566.90 642.83 559.38 649.69 551.70 656.37 C 551.69 612.90 551.70 569.44 551.70 525.97 C 551.77 511.61 551.05 497.07 554.16 482.94 C 560.14 452.71 580.02 426.33 605.63 409.70 Z" />
<path fill="#fdcd0b" opacity="1.00" d=" M 320.98 443.07 C 337.65 432.49 357.29 427.00 376.98 426.48 C 395.56 425.87 414.42 429.31 431.15 437.59 C 445.33 444.50 457.88 454.57 468.19 466.46 C 477.50 463.88 486.72 461.03 496.01 458.37 C 495.99 524.47 496.07 590.56 495.96 656.65 C 484.71 645.46 473.57 634.14 462.40 622.86 C 448.69 636.64 431.66 647.33 412.84 652.48 C 392.47 658.04 370.61 658.14 350.19 652.77 C 322.27 645.42 298.34 626.15 282.89 602.04 C 271.00 583.38 265.49 561.03 266.11 538.99 C 266.32 518.12 272.29 497.27 283.74 479.78 C 293.37 465.11 306.12 452.44 320.98 443.07 M 369.16 450.14 C 338.45 453.36 311.23 474.36 297.77 501.75 C 289.64 518.47 287.55 537.70 290.07 556.00 C 292.41 572.88 299.94 588.93 311.26 601.66 C 322.80 614.95 337.90 625.43 354.97 630.12 C 373.50 635.27 393.66 634.87 411.88 628.63 C 430.56 622.11 446.51 608.90 457.70 592.72 C 468.33 577.36 473.42 558.51 472.95 539.91 C 472.87 522.10 467.48 504.29 457.22 489.70 C 447.87 476.45 435.37 465.27 420.74 458.18 C 404.84 450.46 386.63 448.10 369.16 450.14 Z" />
<path fill="#fdcd0b" opacity="1.00" d=" M 679.89 429.09 C 703.09 424.30 727.89 425.70 749.87 434.87 C 766.51 441.77 781.13 453.01 792.99 466.50 C 802.20 463.78 811.43 461.09 820.65 458.39 C 820.68 524.47 820.68 590.55 820.65 656.64 C 809.38 645.46 798.23 634.17 787.09 622.86 C 776.83 633.05 764.92 641.70 751.61 647.46 C 728.92 657.32 703.02 659.11 678.96 653.78 C 649.73 647.34 624.37 627.84 608.17 602.98 C 597.92 587.22 592.11 568.71 591.00 549.96 C 589.39 526.66 594.28 502.64 606.62 482.65 C 622.81 456.24 649.32 435.58 679.89 429.09 M 689.51 450.75 C 660.83 455.25 635.81 475.22 622.86 500.88 C 613.63 519.48 611.66 541.23 615.71 561.47 C 619.37 579.73 629.35 596.44 643.03 608.98 C 655.14 620.66 670.59 628.84 687.15 631.92 C 705.39 635.29 724.76 633.86 741.90 626.54 C 757.10 620.08 770.14 609.09 780.05 595.98 C 803.52 565.07 803.65 518.64 780.37 487.59 C 771.02 474.99 758.73 464.46 744.52 457.74 C 727.48 449.79 707.99 447.76 689.51 450.75 Z" />
<path fill="#fdcd0b" opacity="1.00" d=" M 513.69 470.43 C 521.47 470.40 529.25 470.41 537.03 470.43 C 536.99 532.51 537.03 594.58 537.01 656.66 C 529.23 656.66 521.46 656.68 513.69 656.65 C 513.71 594.58 513.70 532.51 513.69 470.43 Z" />
</g>
<g id="#edededff">
<path fill="#ededed" opacity="1.00" d=" M 389.02 683.09 C 391.14 683.17 395.81 681.58 395.61 685.07 C 395.68 703.07 395.55 721.07 395.67 739.06 C 393.70 739.77 391.63 739.67 389.63 739.23 C 389.61 737.38 389.60 735.53 389.61 733.70 C 386.17 737.01 382.02 740.34 376.96 740.14 C 371.15 740.56 365.53 736.73 363.71 731.22 C 361.06 723.64 361.12 714.84 364.60 707.54 C 367.59 701.23 375.51 698.35 382.00 700.59 C 384.66 701.49 386.78 703.44 388.88 705.24 C 388.86 697.86 388.60 690.46 389.02 683.09 M 375.17 706.25 C 370.78 708.31 369.22 713.52 368.99 718.01 C 368.82 722.71 369.01 728.03 372.21 731.80 C 374.76 735.00 379.79 735.02 383.00 732.81 C 385.21 731.26 387.38 729.39 388.73 727.03 C 388.85 722.19 388.99 717.32 388.65 712.50 C 385.64 708.39 380.61 704.17 375.17 706.25 Z" />
<path fill="#ededed" opacity="1.00" d=" M 601.70 682.87 C 603.85 682.67 606.01 682.68 608.17 682.91 C 608.38 701.69 608.25 720.48 608.23 739.26 C 606.03 739.68 603.79 739.67 601.59 739.30 C 601.53 720.50 601.30 701.67 601.70 682.87 Z" />
<path fill="#ededed" opacity="1.00" d=" M 715.95 682.96 C 718.05 682.94 720.80 681.91 722.51 683.54 C 722.79 690.93 722.59 698.35 722.58 705.76 C 725.94 702.58 730.10 699.58 734.98 699.89 C 741.17 699.54 746.65 704.21 748.23 710.03 C 750.27 717.23 750.25 725.35 747.01 732.21 C 744.59 737.45 738.75 740.67 733.02 740.13 C 728.50 740.14 724.91 737.03 721.89 734.04 C 721.88 735.76 721.86 737.48 721.85 739.21 C 719.88 739.66 717.87 739.65 715.91 739.29 C 715.86 720.51 715.78 701.74 715.95 682.96 M 722.60 712.91 C 722.73 717.67 722.47 722.44 722.71 727.20 C 725.57 731.61 731.08 736.03 736.61 733.63 C 742.29 730.42 742.93 722.94 742.42 717.11 C 742.14 712.53 740.19 706.74 735.05 705.85 C 729.71 704.85 725.59 709.13 722.60 712.91 Z" />
<path fill="#ededed" opacity="1.00" d=" M 407.68 686.58 C 409.80 684.29 415.98 684.83 415.40 689.02 C 416.91 694.42 406.82 695.34 407.03 690.07 C 406.88 688.82 407.10 687.66 407.68 686.58 Z" />
<path fill="#ededed" opacity="1.00" d=" M 454.69 686.56 C 456.81 684.32 462.92 684.81 462.40 688.97 C 463.98 694.40 453.84 695.37 454.03 690.08 C 453.88 688.82 454.10 687.64 454.69 686.56 Z" />
<path fill="#ededed" opacity="1.00" d=" M 788.55 686.32 C 790.95 684.41 796.60 684.94 796.06 689.02 C 797.26 693.67 790.27 695.00 788.06 691.88 C 787.71 690.09 787.29 687.80 788.55 686.32 Z" />
<path fill="#ededed" opacity="1.00" d=" M 257.00 692.61 C 254.94 691.06 255.45 685.57 258.98 686.63 C 271.01 686.76 283.06 686.40 295.08 686.83 C 295.04 688.65 295.98 691.04 294.52 692.51 C 289.42 693.01 284.26 692.57 279.14 692.72 C 279.10 708.21 279.19 723.71 279.10 739.20 C 276.78 739.70 274.41 739.73 272.11 739.13 C 271.98 723.66 272.11 708.19 272.04 692.72 C 267.03 692.63 262.00 692.88 257.00 692.61 Z" />
<path fill="#ededed" opacity="1.00" d=" M 640.63 691.04 C 640.54 689.33 640.72 686.72 643.03 686.75 C 651.36 686.58 659.73 686.50 668.07 686.83 C 667.96 688.60 669.31 691.95 666.94 692.62 C 660.54 692.89 654.13 692.62 647.73 692.73 C 647.71 698.67 647.71 704.61 647.73 710.55 C 654.20 710.68 660.69 710.28 667.16 710.77 C 667.19 712.57 667.16 714.38 667.08 716.19 C 660.63 716.56 654.17 716.25 647.72 716.37 C 647.71 723.93 647.73 731.48 647.71 739.04 C 645.42 739.79 643.03 739.68 640.71 739.23 C 640.55 723.17 640.69 707.10 640.63 691.04 Z" />
<path fill="#ededed" opacity="1.00" d=" M 428.62 690.86 C 430.78 690.62 432.97 690.63 435.13 690.97 C 435.19 694.19 435.19 697.41 435.19 700.64 C 438.57 700.64 441.95 700.66 445.33 700.60 C 446.13 702.45 446.14 704.47 445.28 706.31 C 441.91 706.24 438.55 706.26 435.18 706.27 C 435.21 713.19 435.12 720.10 435.21 727.02 C 435.35 729.44 435.52 732.63 438.02 733.85 C 440.57 734.80 443.19 733.63 445.70 733.09 C 445.80 734.99 446.59 737.37 444.98 738.89 C 441.09 740.54 436.24 740.64 432.55 738.43 C 429.33 736.32 428.59 732.24 428.48 728.67 C 428.33 721.21 428.46 713.74 428.42 706.28 C 426.52 706.26 424.62 706.26 422.73 706.32 C 421.75 704.49 421.81 702.44 422.66 700.60 C 424.57 700.62 426.49 700.63 428.42 700.64 C 428.39 697.37 428.34 694.11 428.62 690.86 Z" />
<path fill="#ededed" opacity="1.00" d=" M 302.99 706.87 C 304.94 704.38 306.93 701.59 309.98 700.38 C 312.65 699.33 315.54 700.09 318.17 700.91 C 318.30 703.05 318.28 705.20 318.11 707.35 C 315.47 706.98 312.56 705.50 310.02 706.95 C 307.28 708.69 305.33 711.46 303.76 714.25 C 303.45 722.50 303.69 730.78 303.66 739.05 C 301.46 739.84 299.14 739.67 296.90 739.24 C 296.84 726.42 296.84 713.61 296.90 700.79 C 298.91 700.40 300.97 700.39 302.98 700.83 C 303.00 702.84 303.00 704.85 302.99 706.87 Z" />
<path fill="#ededed" opacity="1.00" d=" M 324.57 703.60 C 329.02 700.49 334.71 699.58 340.05 699.99 C 343.31 700.25 346.82 701.27 348.98 703.90 C 351.33 706.64 351.81 710.42 351.85 713.91 C 351.87 722.34 351.83 730.76 351.86 739.18 C 349.91 739.70 347.91 739.67 345.96 739.23 C 345.98 737.78 345.99 736.35 346.02 734.92 C 341.19 740.12 332.94 741.88 326.69 738.26 C 320.33 734.64 320.00 724.19 326.10 720.15 C 331.66 716.39 338.70 716.85 345.10 716.81 C 345.19 712.98 345.32 707.63 340.92 706.07 C 334.98 703.79 329.32 707.36 323.92 709.33 C 323.80 707.49 322.76 704.93 324.57 703.60 M 331.53 723.40 C 327.34 725.68 327.84 732.97 332.52 734.39 C 337.34 736.23 341.87 732.95 345.04 729.63 C 345.06 726.99 345.06 724.35 345.05 721.72 C 340.54 721.87 335.61 721.05 331.53 723.40 Z" />
<path fill="#ededed" opacity="1.00" d=" M 483.54 700.75 C 489.50 699.20 496.50 699.44 501.58 703.30 C 506.01 706.75 507.71 712.55 507.98 717.95 C 508.24 723.90 507.01 730.36 502.83 734.87 C 496.88 741.05 486.61 741.68 479.25 737.80 C 471.89 733.48 470.56 723.83 471.59 716.09 C 472.28 709.28 476.69 702.60 483.54 700.75 M 484.49 706.67 C 480.71 708.64 478.90 712.90 478.52 716.96 C 478.13 721.20 478.32 725.75 480.40 729.57 C 484.04 736.15 494.94 736.07 498.72 729.66 C 501.21 725.31 501.34 719.97 500.52 715.14 C 499.94 711.57 498.03 707.97 494.60 706.46 C 491.40 705.17 487.61 705.19 484.49 706.67 Z" />
<path fill="#ededed" opacity="1.00" d=" M 524.00 706.35 C 526.78 703.54 529.99 700.81 534.00 700.08 C 538.06 699.45 542.70 700.20 545.59 703.37 C 548.85 706.65 549.43 711.55 549.45 715.96 C 549.42 723.73 549.52 731.51 549.38 739.29 C 547.17 739.68 544.93 739.68 542.73 739.26 C 542.54 730.94 542.87 722.62 542.57 714.31 C 542.40 710.59 540.30 706.14 536.11 705.86 C 531.12 705.17 527.50 709.39 524.60 712.80 C 524.67 721.55 524.57 730.30 524.66 739.05 C 522.47 739.84 520.15 739.67 517.90 739.25 C 517.84 726.43 517.85 713.61 517.90 700.79 C 519.91 700.39 521.97 700.39 523.99 700.84 C 524.00 702.67 523.99 704.50 524.00 706.35 Z" />
<path fill="#ededed" opacity="1.00" d=" M 562.32 703.27 C 566.97 700.36 572.68 699.48 578.08 700.05 C 581.30 700.43 584.76 701.61 586.71 704.38 C 588.78 707.12 589.13 710.67 589.14 714.00 C 589.14 722.40 589.12 730.81 589.14 739.22 C 587.29 739.42 584.88 740.31 583.41 738.83 C 583.39 737.86 583.33 735.94 583.31 734.98 C 578.45 740.16 570.19 741.86 563.95 738.23 C 557.66 734.56 557.32 724.21 563.40 720.16 C 568.98 716.40 576.04 716.85 582.46 716.80 C 582.34 713.47 582.79 709.38 579.93 706.99 C 577.08 704.95 573.25 705.17 570.00 705.91 C 566.86 706.51 564.33 708.77 561.15 709.18 C 561.11 707.22 560.09 704.41 562.32 703.27 M 568.55 723.60 C 564.75 725.99 565.23 732.68 569.53 734.26 C 574.22 736.24 579.14 733.29 582.12 729.74 C 582.78 727.15 582.29 724.38 582.40 721.73 C 577.79 721.88 572.65 720.99 568.55 723.60 Z" />
<path fill="#ededed" opacity="1.00" d=" M 676.47 703.42 C 681.32 700.25 687.41 699.39 693.08 700.14 C 696.22 700.59 699.49 701.93 701.27 704.70 C 703.34 707.69 703.47 711.45 703.50 714.96 C 703.48 723.06 703.51 731.16 703.48 739.26 C 701.55 739.67 699.59 739.63 697.68 739.31 C 697.69 737.85 697.72 736.39 697.77 734.94 C 692.87 739.98 684.84 741.90 678.55 738.37 C 672.16 734.93 671.58 724.66 677.41 720.41 C 683.00 716.36 690.27 716.86 696.82 716.81 C 696.83 713.04 697.00 707.82 692.79 706.15 C 686.90 703.83 681.09 707.08 675.80 709.40 C 675.25 707.47 674.40 704.73 676.47 703.42 M 682.74 723.72 C 678.91 726.30 679.78 733.27 684.40 734.46 C 689.21 736.15 693.65 732.86 696.77 729.54 C 696.77 726.93 696.77 724.32 696.77 721.72 C 692.09 721.91 686.85 720.94 682.74 723.72 Z" />
<path fill="#ededed" opacity="1.00" d=" M 765.63 706.86 C 767.88 704.11 770.18 700.77 773.90 700.03 C 776.19 699.75 778.82 699.77 780.75 701.22 C 781.28 703.28 781.05 705.44 780.45 707.46 C 778.01 706.89 775.28 705.53 772.86 706.87 C 769.87 708.53 768.14 711.62 766.25 714.34 C 766.28 722.64 766.28 730.94 766.24 739.25 C 764.04 739.69 761.79 739.67 759.59 739.31 C 759.45 726.45 759.44 713.58 759.59 700.73 C 761.58 700.44 763.60 700.42 765.61 700.76 C 765.64 702.78 765.66 704.82 765.63 706.86 Z" />
<path fill="#ededed" opacity="1.00" d=" M 808.53 706.57 C 813.49 699.04 824.99 697.87 832.03 703.04 C 833.99 704.30 834.04 706.91 833.53 708.95 C 832.78 711.06 830.80 708.90 829.69 708.30 C 825.38 704.79 817.76 704.37 814.53 709.51 C 811.47 714.74 811.50 721.35 812.96 727.09 C 813.92 731.16 817.66 734.47 821.98 734.24 C 826.35 734.54 829.73 731.45 833.19 729.30 C 834.17 731.76 834.68 735.37 831.97 736.93 C 826.67 740.47 819.42 741.27 813.60 738.54 C 808.49 736.11 805.90 730.49 805.25 725.12 C 804.54 718.84 804.94 711.98 808.53 706.57 Z" />
<path fill="#ededed" opacity="1.00" d=" M 844.74 702.71 C 848.73 699.68 854.13 699.40 858.87 700.45 C 860.65 700.98 862.76 701.51 863.83 703.19 C 863.94 704.74 864.66 706.98 863.04 707.96 C 859.19 706.06 854.80 704.00 850.50 705.75 C 847.11 706.84 846.21 711.77 849.00 713.99 C 853.48 717.55 860.05 717.76 863.87 722.30 C 867.79 727.24 865.89 735.36 860.27 738.18 C 854.69 740.96 847.73 740.76 842.16 738.07 C 839.24 737.00 839.55 733.19 840.78 730.95 C 845.07 733.46 850.19 735.91 855.24 734.17 C 859.75 733.27 860.62 726.45 856.41 724.54 C 852.39 722.08 847.40 721.38 843.88 718.11 C 839.46 714.13 839.96 706.19 844.74 702.71 Z" />
<path fill="#ededed" opacity="1.00" d=" M 407.91 700.82 C 410.14 700.40 412.45 700.25 414.64 701.01 C 414.64 713.68 414.59 726.36 414.66 739.03 C 412.47 739.84 410.15 739.67 407.90 739.25 C 407.84 726.44 407.83 713.63 407.91 700.82 Z" />
<path fill="#ededed" opacity="1.00" d=" M 454.91 700.82 C 457.14 700.40 459.45 700.25 461.64 701.02 C 461.62 713.70 461.61 726.39 461.65 739.08 C 459.45 739.80 457.14 739.68 454.90 739.24 C 454.85 726.43 454.83 713.63 454.91 700.82 Z" />
<path fill="#ededed" opacity="1.00" d=" M 788.57 700.81 C 790.77 700.38 793.02 700.38 795.23 700.83 C 795.30 713.63 795.28 726.43 795.24 739.23 C 793.02 739.70 790.76 739.70 788.56 739.25 C 788.48 726.44 788.45 713.62 788.57 700.81 Z" />
</g>
</svg>
